<svg width="500" height="500" viewBox="0 0 500 500" fill="none" xmlns="http://www.w3.org/2000/svg">
<g clip-path="url(#clip0_1322_111)">
<path d="M175.557 46.7776C147.443 49.9153 122.844 62.215 101.508 83.8023C60.2156 125.722 54.3167 188.601 87.0742 237.675C92.722 246.209 163.759 317.372 173.298 324.275C183.84 331.68 186.476 332.056 226.262 331.805L250.61 331.68L249.857 324.526C249.355 320.007 247.473 313.983 244.712 308.461C240.695 300.303 236.177 295.534 191.371 251.104C145.059 205.043 142.297 202.156 137.779 192.868C133.01 183.204 132.884 182.828 133.01 169.147C133.01 157.977 133.637 154.087 135.897 148.564C142.925 131.495 155.225 119.697 171.792 114.05C178.946 111.665 183.589 111.539 256.509 110.786C307.967 110.284 335.077 109.531 337.713 108.653C363.065 99.8673 382.017 76.3974 383.523 51.7979L383.899 46.1501L284.121 46.0246C229.274 45.8991 180.452 46.2756 175.557 46.7776Z" fill="white"/>
<path d="M251.489 183.957C251.489 189.981 254.125 200.398 257.262 207.301C259.898 213.326 267.93 221.735 312.109 265.411L363.818 316.367L322.903 357.659C269.06 411.753 261.906 419.158 258.392 425.182C254.627 431.709 251.238 443.506 251.74 448.652L252.117 452.794L274.708 453.17C301.692 453.672 314.745 452.166 322.903 447.648C326.919 445.514 345.369 427.943 377.373 395.939C429.961 343.226 430.588 342.473 433.726 325.404C435.609 315.363 433.6 302.436 428.58 292.144C425.066 285.241 418.54 278.213 376.62 236.795C334.324 195.001 327.672 188.977 320.518 185.588L312.36 181.698L281.987 181.321L251.489 180.819V183.957Z" fill="white"/>
</g>
<defs>
<clipPath id="clip0_1322_111">
<rect width="500" height="500" fill="white"/>
</clipPath>
</defs>
</svg>
